<mxfile host="Electron" modified="2024-02-08T21:43:53.334Z" agent="Mozilla/5.0 (Macintosh; Intel Mac OS X 10_15_7) AppleWebKit/537.36 (KHTML, like Gecko) draw.io/23.0.2 Chrome/120.0.6099.109 Electron/28.1.0 Safari/537.36" etag="_ACaDzArSK1eCk2xn6dH" version="23.0.2" type="device" pages="5">
  <diagram name="Classe" id="zF7bDjExP8GnxXYXbNRb">
    <mxGraphModel dx="2452" dy="1792" grid="1" gridSize="10" guides="1" tooltips="1" connect="1" arrows="1" fold="1" page="1" pageScale="1" pageWidth="1169" pageHeight="827" math="0" shadow="0">
      <root>
        <mxCell id="0" />
        <mxCell id="1" parent="0" />
        <mxCell id="QKjxz9xp2Qdw2E38AePO-1" value="Save" style="swimlane;fontStyle=1;align=center;verticalAlign=top;childLayout=stackLayout;horizontal=1;startSize=26;horizontalStack=0;resizeParent=1;resizeParentMax=0;resizeLast=0;collapsible=1;marginBottom=0;whiteSpace=wrap;html=1;" parent="1" vertex="1">
          <mxGeometry x="405" y="76" width="180" height="420" as="geometry" />
        </mxCell>
        <mxCell id="QKjxz9xp2Qdw2E38AePO-2" value="- number : string" style="text;strokeColor=none;fillColor=none;align=left;verticalAlign=top;spacingLeft=4;spacingRight=4;overflow=hidden;rotatable=0;points=[[0,0.5],[1,0.5]];portConstraint=eastwest;whiteSpace=wrap;html=1;" parent="QKjxz9xp2Qdw2E38AePO-1" vertex="1">
          <mxGeometry y="26" width="180" height="26" as="geometry" />
        </mxCell>
        <mxCell id="VRCjyfkmb7IlIPNXP7xt-37" value="- name : string" style="text;strokeColor=none;fillColor=none;align=left;verticalAlign=top;spacingLeft=4;spacingRight=4;overflow=hidden;rotatable=0;points=[[0,0.5],[1,0.5]];portConstraint=eastwest;whiteSpace=wrap;html=1;" parent="QKjxz9xp2Qdw2E38AePO-1" vertex="1">
          <mxGeometry y="52" width="180" height="26" as="geometry" />
        </mxCell>
        <mxCell id="QKjxz9xp2Qdw2E38AePO-6" value="- targetPath : string" style="text;strokeColor=none;fillColor=none;align=left;verticalAlign=top;spacingLeft=4;spacingRight=4;overflow=hidden;rotatable=0;points=[[0,0.5],[1,0.5]];portConstraint=eastwest;whiteSpace=wrap;html=1;" parent="QKjxz9xp2Qdw2E38AePO-1" vertex="1">
          <mxGeometry y="78" width="180" height="24" as="geometry" />
        </mxCell>
        <mxCell id="QKjxz9xp2Qdw2E38AePO-3" value="" style="line;strokeWidth=1;fillColor=none;align=left;verticalAlign=middle;spacingTop=-1;spacingLeft=3;spacingRight=3;rotatable=0;labelPosition=right;points=[];portConstraint=eastwest;strokeColor=inherit;" parent="QKjxz9xp2Qdw2E38AePO-1" vertex="1">
          <mxGeometry y="102" width="180" height="8" as="geometry" />
        </mxCell>
        <mxCell id="QKjxz9xp2Qdw2E38AePO-4" value="+ ExecuteSave()" style="text;strokeColor=none;fillColor=none;align=left;verticalAlign=top;spacingLeft=4;spacingRight=4;overflow=hidden;rotatable=0;points=[[0,0.5],[1,0.5]];portConstraint=eastwest;whiteSpace=wrap;html=1;" parent="QKjxz9xp2Qdw2E38AePO-1" vertex="1">
          <mxGeometry y="110" width="180" height="26" as="geometry" />
        </mxCell>
        <mxCell id="jz_ZIrvXAskVPaY3bd-V-15" value="+ CopyDirectory()" style="text;strokeColor=none;fillColor=none;align=left;verticalAlign=top;spacingLeft=4;spacingRight=4;overflow=hidden;rotatable=0;points=[[0,0.5],[1,0.5]];portConstraint=eastwest;whiteSpace=wrap;html=1;" vertex="1" parent="QKjxz9xp2Qdw2E38AePO-1">
          <mxGeometry y="136" width="180" height="26" as="geometry" />
        </mxCell>
        <mxCell id="jz_ZIrvXAskVPaY3bd-V-14" value="+ SetNumber()" style="text;strokeColor=none;fillColor=none;align=left;verticalAlign=top;spacingLeft=4;spacingRight=4;overflow=hidden;rotatable=0;points=[[0,0.5],[1,0.5]];portConstraint=eastwest;whiteSpace=wrap;html=1;" vertex="1" parent="QKjxz9xp2Qdw2E38AePO-1">
          <mxGeometry y="162" width="180" height="26" as="geometry" />
        </mxCell>
        <mxCell id="jz_ZIrvXAskVPaY3bd-V-18" value="+ ToString()" style="text;strokeColor=none;fillColor=none;align=left;verticalAlign=top;spacingLeft=4;spacingRight=4;overflow=hidden;rotatable=0;points=[[0,0.5],[1,0.5]];portConstraint=eastwest;whiteSpace=wrap;html=1;" vertex="1" parent="QKjxz9xp2Qdw2E38AePO-1">
          <mxGeometry y="188" width="180" height="26" as="geometry" />
        </mxCell>
        <mxCell id="jz_ZIrvXAskVPaY3bd-V-17" value="&amp;lt;&amp;lt;Abstract&amp;gt;&amp;gt;&lt;br&gt;+CanFileBeCopied&lt;span style=&quot;background-color: initial;&quot;&gt;():boolean&lt;/span&gt;" style="text;strokeColor=none;fillColor=none;align=left;verticalAlign=top;spacingLeft=4;spacingRight=4;overflow=hidden;rotatable=0;points=[[0,0.5],[1,0.5]];portConstraint=eastwest;whiteSpace=wrap;html=1;" vertex="1" parent="QKjxz9xp2Qdw2E38AePO-1">
          <mxGeometry y="214" width="180" height="46" as="geometry" />
        </mxCell>
        <mxCell id="jz_ZIrvXAskVPaY3bd-V-19" value="&amp;lt;&amp;lt;Abstract&amp;gt;&amp;gt;&lt;br style=&quot;border-color: var(--border-color);&quot;&gt;+GetTypeName&lt;span style=&quot;background-color: initial;&quot;&gt;()&lt;/span&gt;" style="text;strokeColor=none;fillColor=none;align=left;verticalAlign=top;spacingLeft=4;spacingRight=4;overflow=hidden;rotatable=0;points=[[0,0.5],[1,0.5]];portConstraint=eastwest;whiteSpace=wrap;html=1;" vertex="1" parent="QKjxz9xp2Qdw2E38AePO-1">
          <mxGeometry y="260" width="180" height="50" as="geometry" />
        </mxCell>
        <mxCell id="mYCZ9Uz_D2LYC5DxC9cj-2" value="+SaveLogsToJson&lt;span style=&quot;background-color: initial;&quot;&gt;()&lt;/span&gt;" style="text;strokeColor=none;fillColor=none;align=left;verticalAlign=top;spacingLeft=4;spacingRight=4;overflow=hidden;rotatable=0;points=[[0,0.5],[1,0.5]];portConstraint=eastwest;whiteSpace=wrap;html=1;" vertex="1" parent="QKjxz9xp2Qdw2E38AePO-1">
          <mxGeometry y="310" width="180" height="26" as="geometry" />
        </mxCell>
        <mxCell id="mYCZ9Uz_D2LYC5DxC9cj-3" value="+AddLog&lt;span style=&quot;background-color: initial;&quot;&gt;()&lt;/span&gt;" style="text;strokeColor=none;fillColor=none;align=left;verticalAlign=top;spacingLeft=4;spacingRight=4;overflow=hidden;rotatable=0;points=[[0,0.5],[1,0.5]];portConstraint=eastwest;whiteSpace=wrap;html=1;" vertex="1" parent="QKjxz9xp2Qdw2E38AePO-1">
          <mxGeometry y="336" width="180" height="26" as="geometry" />
        </mxCell>
        <mxCell id="mYCZ9Uz_D2LYC5DxC9cj-6" value="+CalculateTransferTime&lt;span style=&quot;background-color: initial;&quot;&gt;()&lt;/span&gt;" style="text;strokeColor=none;fillColor=none;align=left;verticalAlign=top;spacingLeft=4;spacingRight=4;overflow=hidden;rotatable=0;points=[[0,0.5],[1,0.5]];portConstraint=eastwest;whiteSpace=wrap;html=1;" vertex="1" parent="QKjxz9xp2Qdw2E38AePO-1">
          <mxGeometry y="362" width="180" height="26" as="geometry" />
        </mxCell>
        <mxCell id="mYCZ9Uz_D2LYC5DxC9cj-7" value="+GetTotalFileSize&lt;span style=&quot;background-color: initial;&quot;&gt;()&lt;/span&gt;" style="text;strokeColor=none;fillColor=none;align=left;verticalAlign=top;spacingLeft=4;spacingRight=4;overflow=hidden;rotatable=0;points=[[0,0.5],[1,0.5]];portConstraint=eastwest;whiteSpace=wrap;html=1;" vertex="1" parent="QKjxz9xp2Qdw2E38AePO-1">
          <mxGeometry y="388" width="180" height="32" as="geometry" />
        </mxCell>
        <mxCell id="QKjxz9xp2Qdw2E38AePO-13" value="Total" style="swimlane;fontStyle=1;align=center;verticalAlign=top;childLayout=stackLayout;horizontal=1;startSize=26;horizontalStack=0;resizeParent=1;resizeParentMax=0;resizeLast=0;collapsible=1;marginBottom=0;whiteSpace=wrap;html=1;" parent="1" vertex="1">
          <mxGeometry x="750" y="190" width="160" height="60" as="geometry" />
        </mxCell>
        <mxCell id="QKjxz9xp2Qdw2E38AePO-15" value="" style="line;strokeWidth=1;fillColor=none;align=left;verticalAlign=middle;spacingTop=-1;spacingLeft=3;spacingRight=3;rotatable=0;labelPosition=right;points=[];portConstraint=eastwest;strokeColor=inherit;" parent="QKjxz9xp2Qdw2E38AePO-13" vertex="1">
          <mxGeometry y="26" width="160" height="8" as="geometry" />
        </mxCell>
        <mxCell id="VRCjyfkmb7IlIPNXP7xt-31" value="+ getName() : string" style="text;strokeColor=none;fillColor=none;align=left;verticalAlign=top;spacingLeft=4;spacingRight=4;overflow=hidden;rotatable=0;points=[[0,0.5],[1,0.5]];portConstraint=eastwest;whiteSpace=wrap;html=1;" parent="QKjxz9xp2Qdw2E38AePO-13" vertex="1">
          <mxGeometry y="34" width="160" height="26" as="geometry" />
        </mxCell>
        <mxCell id="QKjxz9xp2Qdw2E38AePO-18" value="DiffÃ©rentiel" style="swimlane;fontStyle=1;align=center;verticalAlign=top;childLayout=stackLayout;horizontal=1;startSize=26;horizontalStack=0;resizeParent=1;resizeParentMax=0;resizeLast=0;collapsible=1;marginBottom=0;whiteSpace=wrap;html=1;" parent="1" vertex="1">
          <mxGeometry x="750" y="330" width="160" height="60" as="geometry" />
        </mxCell>
        <mxCell id="QKjxz9xp2Qdw2E38AePO-20" value="" style="line;strokeWidth=1;fillColor=none;align=left;verticalAlign=middle;spacingTop=-1;spacingLeft=3;spacingRight=3;rotatable=0;labelPosition=right;points=[];portConstraint=eastwest;strokeColor=inherit;" parent="QKjxz9xp2Qdw2E38AePO-18" vertex="1">
          <mxGeometry y="26" width="160" height="8" as="geometry" />
        </mxCell>
        <mxCell id="VRCjyfkmb7IlIPNXP7xt-32" value="+ getName() : string" style="text;strokeColor=none;fillColor=none;align=left;verticalAlign=top;spacingLeft=4;spacingRight=4;overflow=hidden;rotatable=0;points=[[0,0.5],[1,0.5]];portConstraint=eastwest;whiteSpace=wrap;html=1;" parent="QKjxz9xp2Qdw2E38AePO-18" vertex="1">
          <mxGeometry y="34" width="160" height="26" as="geometry" />
        </mxCell>
        <mxCell id="QKjxz9xp2Qdw2E38AePO-27" value="File" style="swimlane;fontStyle=1;align=center;verticalAlign=top;childLayout=stackLayout;horizontal=1;startSize=26;horizontalStack=0;resizeParent=1;resizeParentMax=0;resizeLast=0;collapsible=1;marginBottom=0;whiteSpace=wrap;html=1;" parent="1" vertex="1">
          <mxGeometry x="-50" y="554" width="160" height="84" as="geometry" />
        </mxCell>
        <mxCell id="QKjxz9xp2Qdw2E38AePO-30" value="- name : string" style="text;strokeColor=none;fillColor=none;align=left;verticalAlign=top;spacingLeft=4;spacingRight=4;overflow=hidden;rotatable=0;points=[[0,0.5],[1,0.5]];portConstraint=eastwest;whiteSpace=wrap;html=1;" parent="QKjxz9xp2Qdw2E38AePO-27" vertex="1">
          <mxGeometry y="26" width="160" height="26" as="geometry" />
        </mxCell>
        <mxCell id="QKjxz9xp2Qdw2E38AePO-32" value="- size : double" style="text;strokeColor=none;fillColor=none;align=left;verticalAlign=top;spacingLeft=4;spacingRight=4;overflow=hidden;rotatable=0;points=[[0,0.5],[1,0.5]];portConstraint=eastwest;whiteSpace=wrap;html=1;" parent="QKjxz9xp2Qdw2E38AePO-27" vertex="1">
          <mxGeometry y="52" width="160" height="24" as="geometry" />
        </mxCell>
        <mxCell id="QKjxz9xp2Qdw2E38AePO-28" value="" style="line;strokeWidth=1;fillColor=none;align=left;verticalAlign=middle;spacingTop=-1;spacingLeft=3;spacingRight=3;rotatable=0;labelPosition=right;points=[];portConstraint=eastwest;strokeColor=inherit;" parent="QKjxz9xp2Qdw2E38AePO-27" vertex="1">
          <mxGeometry y="76" width="160" height="8" as="geometry" />
        </mxCell>
        <mxCell id="QKjxz9xp2Qdw2E38AePO-37" value="App (View)" style="swimlane;fontStyle=1;align=center;verticalAlign=top;childLayout=stackLayout;horizontal=1;startSize=26;horizontalStack=0;resizeParent=1;resizeParentMax=0;resizeLast=0;collapsible=1;marginBottom=0;whiteSpace=wrap;html=1;" parent="1" vertex="1">
          <mxGeometry x="70" y="-100" width="160" height="60" as="geometry" />
        </mxCell>
        <mxCell id="QKjxz9xp2Qdw2E38AePO-39" value="" style="line;strokeWidth=1;fillColor=none;align=left;verticalAlign=middle;spacingTop=-1;spacingLeft=3;spacingRight=3;rotatable=0;labelPosition=right;points=[];portConstraint=eastwest;strokeColor=inherit;" parent="QKjxz9xp2Qdw2E38AePO-37" vertex="1">
          <mxGeometry y="26" width="160" height="8" as="geometry" />
        </mxCell>
        <mxCell id="QKjxz9xp2Qdw2E38AePO-40" value="+ Main()" style="text;strokeColor=none;fillColor=none;align=left;verticalAlign=top;spacingLeft=4;spacingRight=4;overflow=hidden;rotatable=0;points=[[0,0.5],[1,0.5]];portConstraint=eastwest;whiteSpace=wrap;html=1;" parent="QKjxz9xp2Qdw2E38AePO-37" vertex="1">
          <mxGeometry y="34" width="160" height="26" as="geometry" />
        </mxCell>
        <mxCell id="QKjxz9xp2Qdw2E38AePO-41" value="ModelView" style="swimlane;fontStyle=1;align=center;verticalAlign=top;childLayout=stackLayout;horizontal=1;startSize=26;horizontalStack=0;resizeParent=1;resizeParentMax=0;resizeLast=0;collapsible=1;marginBottom=0;whiteSpace=wrap;html=1;" parent="1" vertex="1">
          <mxGeometry x="320" y="-170" width="430" height="86" as="geometry" />
        </mxCell>
        <mxCell id="QKjxz9xp2Qdw2E38AePO-42" value="" style="line;strokeWidth=1;fillColor=none;align=left;verticalAlign=middle;spacingTop=-1;spacingLeft=3;spacingRight=3;rotatable=0;labelPosition=right;points=[];portConstraint=eastwest;strokeColor=inherit;" parent="QKjxz9xp2Qdw2E38AePO-41" vertex="1">
          <mxGeometry y="26" width="430" height="8" as="geometry" />
        </mxCell>
        <mxCell id="jz_ZIrvXAskVPaY3bd-V-5" value="+ CreateSave(name, targetPath, sourceRepo, typeSave)" style="text;strokeColor=none;fillColor=none;align=left;verticalAlign=top;spacingLeft=4;spacingRight=4;overflow=hidden;rotatable=0;points=[[0,0.5],[1,0.5]];portConstraint=eastwest;whiteSpace=wrap;html=1;" vertex="1" parent="QKjxz9xp2Qdw2E38AePO-41">
          <mxGeometry y="34" width="430" height="26" as="geometry" />
        </mxCell>
        <mxCell id="jz_ZIrvXAskVPaY3bd-V-1" value="+ RunSave(numbersUser)" style="text;strokeColor=none;fillColor=none;align=left;verticalAlign=top;spacingLeft=4;spacingRight=4;overflow=hidden;rotatable=0;points=[[0,0.5],[1,0.5]];portConstraint=eastwest;whiteSpace=wrap;html=1;" vertex="1" parent="QKjxz9xp2Qdw2E38AePO-41">
          <mxGeometry y="60" width="430" height="26" as="geometry" />
        </mxCell>
        <mxCell id="QKjxz9xp2Qdw2E38AePO-46" value="Folder" style="swimlane;fontStyle=1;align=center;verticalAlign=top;childLayout=stackLayout;horizontal=1;startSize=26;horizontalStack=0;resizeParent=1;resizeParentMax=0;resizeLast=0;collapsible=1;marginBottom=0;whiteSpace=wrap;html=1;" parent="1" vertex="1">
          <mxGeometry x="120" y="450" width="160" height="60" as="geometry" />
        </mxCell>
        <mxCell id="QKjxz9xp2Qdw2E38AePO-31" value="+ name : string" style="text;strokeColor=none;fillColor=none;align=left;verticalAlign=top;spacingLeft=4;spacingRight=4;overflow=hidden;rotatable=0;points=[[0,0.5],[1,0.5]];portConstraint=eastwest;whiteSpace=wrap;html=1;" parent="QKjxz9xp2Qdw2E38AePO-46" vertex="1">
          <mxGeometry y="26" width="160" height="26" as="geometry" />
        </mxCell>
        <mxCell id="QKjxz9xp2Qdw2E38AePO-48" value="" style="line;strokeWidth=1;fillColor=none;align=left;verticalAlign=middle;spacingTop=-1;spacingLeft=3;spacingRight=3;rotatable=0;labelPosition=right;points=[];portConstraint=eastwest;strokeColor=inherit;" parent="QKjxz9xp2Qdw2E38AePO-46" vertex="1">
          <mxGeometry y="52" width="160" height="8" as="geometry" />
        </mxCell>
        <mxCell id="VRCjyfkmb7IlIPNXP7xt-18" value="" style="endArrow=none;html=1;rounded=0;exitX=1;exitY=0.25;exitDx=0;exitDy=0;entryX=1;entryY=0.5;entryDx=0;entryDy=0;startArrow=open;startFill=0;" parent="QKjxz9xp2Qdw2E38AePO-46" source="QKjxz9xp2Qdw2E38AePO-46" target="QKjxz9xp2Qdw2E38AePO-31" edge="1">
          <mxGeometry width="50" height="50" relative="1" as="geometry">
            <mxPoint x="210" y="6" as="sourcePoint" />
            <mxPoint x="180" y="46" as="targetPoint" />
            <Array as="points">
              <mxPoint x="210" y="15" />
              <mxPoint x="210" y="39" />
              <mxPoint x="190" y="39" />
            </Array>
          </mxGeometry>
        </mxCell>
        <mxCell id="QKjxz9xp2Qdw2E38AePO-51" value="" style="endArrow=open;html=1;rounded=0;endFill=0;" parent="1" source="QKjxz9xp2Qdw2E38AePO-46" target="QKjxz9xp2Qdw2E38AePO-27" edge="1">
          <mxGeometry width="50" height="50" relative="1" as="geometry">
            <mxPoint x="175" y="570" as="sourcePoint" />
            <mxPoint x="130" y="584" as="targetPoint" />
          </mxGeometry>
        </mxCell>
        <mxCell id="QKjxz9xp2Qdw2E38AePO-52" value="0..*" style="text;html=1;strokeColor=none;fillColor=none;align=center;verticalAlign=middle;whiteSpace=wrap;rounded=0;fontStyle=1;fontSize=14;" parent="1" vertex="1">
          <mxGeometry x="70" y="522" width="30" height="30" as="geometry" />
        </mxCell>
        <mxCell id="QKjxz9xp2Qdw2E38AePO-55" value="ManageSaves" style="swimlane;fontStyle=1;align=center;verticalAlign=top;childLayout=stackLayout;horizontal=1;startSize=26;horizontalStack=0;resizeParent=1;resizeParentMax=0;resizeLast=0;collapsible=1;marginBottom=0;whiteSpace=wrap;html=1;" parent="1" vertex="1">
          <mxGeometry x="390" y="-28" width="180" height="60" as="geometry" />
        </mxCell>
        <mxCell id="QKjxz9xp2Qdw2E38AePO-57" value="" style="line;strokeWidth=1;fillColor=none;align=left;verticalAlign=middle;spacingTop=-1;spacingLeft=3;spacingRight=3;rotatable=0;labelPosition=right;points=[];portConstraint=eastwest;strokeColor=inherit;" parent="QKjxz9xp2Qdw2E38AePO-55" vertex="1">
          <mxGeometry y="26" width="180" height="8" as="geometry" />
        </mxCell>
        <mxCell id="VRCjyfkmb7IlIPNXP7xt-1" value="+ RunSaves(numbers)" style="text;strokeColor=none;fillColor=none;align=left;verticalAlign=top;spacingLeft=4;spacingRight=4;overflow=hidden;rotatable=0;points=[[0,0.5],[1,0.5]];portConstraint=eastwest;whiteSpace=wrap;html=1;" parent="QKjxz9xp2Qdw2E38AePO-55" vertex="1">
          <mxGeometry y="34" width="180" height="26" as="geometry" />
        </mxCell>
        <mxCell id="QKjxz9xp2Qdw2E38AePO-59" value="" style="endArrow=open;html=1;rounded=0;endFill=0;" parent="1" source="QKjxz9xp2Qdw2E38AePO-55" target="QKjxz9xp2Qdw2E38AePO-1" edge="1">
          <mxGeometry width="50" height="50" relative="1" as="geometry">
            <mxPoint x="750" y="288" as="sourcePoint" />
            <mxPoint x="580" y="240" as="targetPoint" />
          </mxGeometry>
        </mxCell>
        <mxCell id="VRCjyfkmb7IlIPNXP7xt-7" value="" style="endArrow=open;html=1;rounded=0;endFill=0;" parent="1" source="VRCjyfkmb7IlIPNXP7xt-8" target="QKjxz9xp2Qdw2E38AePO-1" edge="1">
          <mxGeometry width="50" height="50" relative="1" as="geometry">
            <mxPoint x="507" y="102" as="sourcePoint" />
            <mxPoint x="504" y="150" as="targetPoint" />
          </mxGeometry>
        </mxCell>
        <mxCell id="VRCjyfkmb7IlIPNXP7xt-8" value="DailyLog" style="swimlane;fontStyle=1;align=center;verticalAlign=top;childLayout=stackLayout;horizontal=1;startSize=26;horizontalStack=0;resizeParent=1;resizeParentMax=0;resizeLast=0;collapsible=1;marginBottom=0;whiteSpace=wrap;html=1;" parent="1" vertex="1">
          <mxGeometry x="40" y="160" width="210" height="128" as="geometry" />
        </mxCell>
        <mxCell id="KEh-Ik17qkZoGBS0EqvB-2" value="- timeStamp : DataTime&lt;br&gt;- transfereTime : double&lt;br&gt;- name : String&lt;br&gt;- sourcePath : String&lt;br&gt;- destPath : String&lt;br&gt;- fileSize : long" style="text;strokeColor=none;fillColor=none;align=left;verticalAlign=top;spacingLeft=4;spacingRight=4;overflow=hidden;rotatable=0;points=[[0,0.5],[1,0.5]];portConstraint=eastwest;whiteSpace=wrap;html=1;" parent="VRCjyfkmb7IlIPNXP7xt-8" vertex="1">
          <mxGeometry y="26" width="210" height="94" as="geometry" />
        </mxCell>
        <mxCell id="VRCjyfkmb7IlIPNXP7xt-11" value="" style="line;strokeWidth=1;fillColor=none;align=left;verticalAlign=middle;spacingTop=-1;spacingLeft=3;spacingRight=3;rotatable=0;labelPosition=right;points=[];portConstraint=eastwest;strokeColor=inherit;" parent="VRCjyfkmb7IlIPNXP7xt-8" vertex="1">
          <mxGeometry y="120" width="210" height="8" as="geometry" />
        </mxCell>
        <mxCell id="VRCjyfkmb7IlIPNXP7xt-15" value="" style="endArrow=none;html=1;rounded=0;startArrow=open;startFill=0;" parent="1" source="QKjxz9xp2Qdw2E38AePO-46" target="QKjxz9xp2Qdw2E38AePO-1" edge="1">
          <mxGeometry width="50" height="50" relative="1" as="geometry">
            <mxPoint x="260" y="218" as="sourcePoint" />
            <mxPoint x="420" y="218" as="targetPoint" />
          </mxGeometry>
        </mxCell>
        <mxCell id="VRCjyfkmb7IlIPNXP7xt-20" value="0..*" style="text;html=1;strokeColor=none;fillColor=none;align=center;verticalAlign=middle;whiteSpace=wrap;rounded=0;fontStyle=1;fontSize=14;" parent="1" vertex="1">
          <mxGeometry x="290" y="430" width="20" height="30" as="geometry" />
        </mxCell>
        <mxCell id="VRCjyfkmb7IlIPNXP7xt-24" value="1" style="text;html=1;strokeColor=none;fillColor=none;align=center;verticalAlign=middle;whiteSpace=wrap;rounded=0;fontStyle=1;fontSize=14;" parent="1" vertex="1">
          <mxGeometry x="360" y="240" width="30" height="30" as="geometry" />
        </mxCell>
        <mxCell id="VRCjyfkmb7IlIPNXP7xt-29" value="0..*" style="text;html=1;strokeColor=none;fillColor=none;align=center;verticalAlign=middle;whiteSpace=wrap;rounded=0;fontStyle=1;fontSize=14;" parent="1" vertex="1">
          <mxGeometry x="495" y="50" width="20" height="30" as="geometry" />
        </mxCell>
        <mxCell id="VRCjyfkmb7IlIPNXP7xt-34" value="" style="endArrow=classic;html=1;rounded=0;" parent="1" source="QKjxz9xp2Qdw2E38AePO-41" target="QKjxz9xp2Qdw2E38AePO-37" edge="1">
          <mxGeometry width="50" height="50" relative="1" as="geometry">
            <mxPoint x="450" y="220" as="sourcePoint" />
            <mxPoint x="500" y="170" as="targetPoint" />
          </mxGeometry>
        </mxCell>
        <mxCell id="VRCjyfkmb7IlIPNXP7xt-35" value="" style="endArrow=classic;html=1;rounded=0;" parent="1" source="QKjxz9xp2Qdw2E38AePO-41" target="QKjxz9xp2Qdw2E38AePO-55" edge="1">
          <mxGeometry width="50" height="50" relative="1" as="geometry">
            <mxPoint x="343" y="-106" as="sourcePoint" />
            <mxPoint x="240" y="-80" as="targetPoint" />
          </mxGeometry>
        </mxCell>
        <mxCell id="VRCjyfkmb7IlIPNXP7xt-38" value="" style="endArrow=block;html=1;rounded=0;endFill=0;" parent="1" source="QKjxz9xp2Qdw2E38AePO-13" target="QKjxz9xp2Qdw2E38AePO-1" edge="1">
          <mxGeometry width="50" height="50" relative="1" as="geometry">
            <mxPoint x="540" y="230" as="sourcePoint" />
            <mxPoint x="590" y="180" as="targetPoint" />
          </mxGeometry>
        </mxCell>
        <mxCell id="VRCjyfkmb7IlIPNXP7xt-39" value="" style="endArrow=block;html=1;rounded=0;endFill=0;" parent="1" source="QKjxz9xp2Qdw2E38AePO-18" target="QKjxz9xp2Qdw2E38AePO-1" edge="1">
          <mxGeometry width="50" height="50" relative="1" as="geometry">
            <mxPoint x="650" y="197" as="sourcePoint" />
            <mxPoint x="570" y="213" as="targetPoint" />
          </mxGeometry>
        </mxCell>
        <mxCell id="jz_ZIrvXAskVPaY3bd-V-3" value="1" style="text;html=1;strokeColor=none;fillColor=none;align=center;verticalAlign=middle;whiteSpace=wrap;rounded=0;fontStyle=1;fontSize=14;" vertex="1" parent="1">
          <mxGeometry x="465" y="-58" width="30" height="30" as="geometry" />
        </mxCell>
        <mxCell id="jz_ZIrvXAskVPaY3bd-V-4" value="1" style="text;html=1;strokeColor=none;fillColor=none;align=center;verticalAlign=middle;whiteSpace=wrap;rounded=0;fontStyle=1;fontSize=14;" vertex="1" parent="1">
          <mxGeometry x="230" y="-80" width="30" height="30" as="geometry" />
        </mxCell>
        <mxCell id="mYCZ9Uz_D2LYC5DxC9cj-4" style="edgeStyle=orthogonalEdgeStyle;rounded=0;orthogonalLoop=1;jettySize=auto;html=1;exitX=1;exitY=0;exitDx=0;exitDy=0;entryX=0.944;entryY=0.024;entryDx=0;entryDy=0;entryPerimeter=0;" edge="1" parent="1" source="QKjxz9xp2Qdw2E38AePO-1" target="QKjxz9xp2Qdw2E38AePO-1">
          <mxGeometry relative="1" as="geometry" />
        </mxCell>
        <mxCell id="mYCZ9Uz_D2LYC5DxC9cj-5" value="&lt;font color=&quot;#ff3333&quot;&gt;Nous savons qu&#39;il y a beaucoup de mÃ©thode dans Save c&#39;est pourquoi nous allons revoir notre archi aprÃ¨s le livrable par manque de temps&lt;/font&gt;" style="rounded=0;whiteSpace=wrap;html=1;strokeColor=#FF3333;" vertex="1" parent="1">
          <mxGeometry x="570" y="540" width="400" height="114" as="geometry" />
        </mxCell>
        <mxCell id="9KhDXo_-rUl26Bqz_oS--1" value="PrincipalView (View)" style="swimlane;fontStyle=1;align=center;verticalAlign=top;childLayout=stackLayout;horizontal=1;startSize=26;horizontalStack=0;resizeParent=1;resizeParentMax=0;resizeLast=0;collapsible=1;marginBottom=0;whiteSpace=wrap;html=1;" vertex="1" parent="1">
          <mxGeometry x="70" y="-220" width="160" height="86" as="geometry" />
        </mxCell>
        <mxCell id="9KhDXo_-rUl26Bqz_oS--6" value="- lang : string" style="text;strokeColor=none;fillColor=none;align=left;verticalAlign=top;spacingLeft=4;spacingRight=4;overflow=hidden;rotatable=0;points=[[0,0.5],[1,0.5]];portConstraint=eastwest;whiteSpace=wrap;html=1;" vertex="1" parent="9KhDXo_-rUl26Bqz_oS--1">
          <mxGeometry y="26" width="160" height="26" as="geometry" />
        </mxCell>
        <mxCell id="9KhDXo_-rUl26Bqz_oS--2" value="" style="line;strokeWidth=1;fillColor=none;align=left;verticalAlign=middle;spacingTop=-1;spacingLeft=3;spacingRight=3;rotatable=0;labelPosition=right;points=[];portConstraint=eastwest;strokeColor=inherit;" vertex="1" parent="9KhDXo_-rUl26Bqz_oS--1">
          <mxGeometry y="52" width="160" height="8" as="geometry" />
        </mxCell>
        <mxCell id="9KhDXo_-rUl26Bqz_oS--3" value="+ update(string)" style="text;strokeColor=none;fillColor=none;align=left;verticalAlign=top;spacingLeft=4;spacingRight=4;overflow=hidden;rotatable=0;points=[[0,0.5],[1,0.5]];portConstraint=eastwest;whiteSpace=wrap;html=1;" vertex="1" parent="9KhDXo_-rUl26Bqz_oS--1">
          <mxGeometry y="60" width="160" height="26" as="geometry" />
        </mxCell>
        <mxCell id="9KhDXo_-rUl26Bqz_oS--4" value="" style="endArrow=classic;html=1;rounded=0;" edge="1" parent="1" source="QKjxz9xp2Qdw2E38AePO-41" target="9KhDXo_-rUl26Bqz_oS--1">
          <mxGeometry width="50" height="50" relative="1" as="geometry">
            <mxPoint x="330" y="-85" as="sourcePoint" />
            <mxPoint x="240" y="-72" as="targetPoint" />
          </mxGeometry>
        </mxCell>
        <mxCell id="9KhDXo_-rUl26Bqz_oS--5" value="1" style="text;html=1;strokeColor=none;fillColor=none;align=center;verticalAlign=middle;whiteSpace=wrap;rounded=0;fontStyle=1;fontSize=14;" vertex="1" parent="1">
          <mxGeometry x="230" y="-180" width="30" height="30" as="geometry" />
        </mxCell>
        <mxCell id="GiEtyWLF-ijF8lT2h-iM-1" value="" style="endArrow=classic;html=1;rounded=0;" edge="1" parent="1" source="9KhDXo_-rUl26Bqz_oS--1" target="QKjxz9xp2Qdw2E38AePO-37">
          <mxGeometry width="50" height="50" relative="1" as="geometry">
            <mxPoint x="330" y="-145" as="sourcePoint" />
            <mxPoint x="240" y="-157" as="targetPoint" />
          </mxGeometry>
        </mxCell>
        <mxCell id="GiEtyWLF-ijF8lT2h-iM-2" value="1" style="text;html=1;strokeColor=none;fillColor=none;align=center;verticalAlign=middle;whiteSpace=wrap;rounded=0;fontStyle=1;fontSize=14;" vertex="1" parent="1">
          <mxGeometry x="150" y="-120" width="30" height="30" as="geometry" />
        </mxCell>
      </root>
    </mxGraphModel>
  </diagram>
  <diagram name="UseCase" id="z3GJNnBpAKsctSegzOqX">
    <mxGraphModel dx="2195" dy="2198" grid="1" gridSize="10" guides="1" tooltips="1" connect="1" arrows="1" fold="1" page="1" pageScale="1" pageWidth="827" pageHeight="1169" math="0" shadow="0">
      <root>
        <mxCell id="0" />
        <mxCell id="1" parent="0" />
        <mxCell id="m7gCa_fF5HbTMKwDqxD0-1" value="User&lt;br&gt;" style="shape=umlActor;verticalLabelPosition=bottom;verticalAlign=top;html=1;outlineConnect=0;" parent="1" vertex="1">
          <mxGeometry x="-20" y="260" width="30" height="60" as="geometry" />
        </mxCell>
        <mxCell id="m7gCa_fF5HbTMKwDqxD0-3" value="Choisir son type de sauvegarde" style="ellipse;whiteSpace=wrap;html=1;" parent="1" vertex="1">
          <mxGeometry x="980" y="340" width="120" height="80" as="geometry" />
        </mxCell>
        <mxCell id="m7gCa_fF5HbTMKwDqxD0-4" value="Choisir Nom" style="ellipse;whiteSpace=wrap;html=1;" parent="1" vertex="1">
          <mxGeometry x="550" y="340" width="120" height="80" as="geometry" />
        </mxCell>
        <mxCell id="m7gCa_fF5HbTMKwDqxD0-5" value="Choisir Source" style="ellipse;whiteSpace=wrap;html=1;" parent="1" vertex="1">
          <mxGeometry x="690" y="340" width="120" height="80" as="geometry" />
        </mxCell>
        <mxCell id="m7gCa_fF5HbTMKwDqxD0-6" value="Choisir Destination" style="ellipse;whiteSpace=wrap;html=1;" parent="1" vertex="1">
          <mxGeometry x="830" y="340" width="120" height="80" as="geometry" />
        </mxCell>
        <mxCell id="m7gCa_fF5HbTMKwDqxD0-7" value="Lancer le programme" style="ellipse;whiteSpace=wrap;html=1;" parent="1" vertex="1">
          <mxGeometry x="70" y="250" width="120" height="80" as="geometry" />
        </mxCell>
        <mxCell id="m7gCa_fF5HbTMKwDqxD0-8" value="Use Case UML : L&#39;utilisateur effectue une ou plusieurs sauvegarde de fichier/dossier" style="rounded=0;whiteSpace=wrap;html=1;" parent="1" vertex="1">
          <mxGeometry x="430" y="-50" width="340" height="90" as="geometry" />
        </mxCell>
        <mxCell id="m7gCa_fF5HbTMKwDqxD0-9" value="En option (Revenir Ã  l&#39;Ã©tape d&#39;avant)" style="ellipse;whiteSpace=wrap;html=1;" parent="1" vertex="1">
          <mxGeometry x="610" y="690" width="120" height="80" as="geometry" />
        </mxCell>
        <mxCell id="m7gCa_fF5HbTMKwDqxD0-11" value="CrÃ©er Sauvegarde" style="ellipse;whiteSpace=wrap;html=1;" parent="1" vertex="1">
          <mxGeometry x="400" y="340" width="120" height="80" as="geometry" />
        </mxCell>
        <mxCell id="m7gCa_fF5HbTMKwDqxD0-12" value="Lancer Sauvegarde" style="ellipse;whiteSpace=wrap;html=1;" parent="1" vertex="1">
          <mxGeometry x="400" y="140" width="120" height="80" as="geometry" />
        </mxCell>
        <mxCell id="m7gCa_fF5HbTMKwDqxD0-13" value="Choisir Sauvegarde&lt;br&gt;(1-3, 1; 3)" style="ellipse;whiteSpace=wrap;html=1;" parent="1" vertex="1">
          <mxGeometry x="570" y="140" width="120" height="80" as="geometry" />
        </mxCell>
        <mxCell id="m7gCa_fF5HbTMKwDqxD0-15" value="" style="endArrow=none;html=1;rounded=0;exitX=0.5;exitY=0.5;exitDx=0;exitDy=0;exitPerimeter=0;" parent="1" source="m7gCa_fF5HbTMKwDqxD0-1" target="m7gCa_fF5HbTMKwDqxD0-7" edge="1">
          <mxGeometry width="50" height="50" relative="1" as="geometry">
            <mxPoint x="10" y="460" as="sourcePoint" />
            <mxPoint x="60" y="410" as="targetPoint" />
          </mxGeometry>
        </mxCell>
        <mxCell id="m7gCa_fF5HbTMKwDqxD0-16" value="" style="endArrow=none;html=1;rounded=0;" parent="1" source="m7gCa_fF5HbTMKwDqxD0-7" target="m7gCa_fF5HbTMKwDqxD0-26" edge="1">
          <mxGeometry width="50" height="50" relative="1" as="geometry">
            <mxPoint x="180" y="380" as="sourcePoint" />
            <mxPoint x="240" y="290" as="targetPoint" />
          </mxGeometry>
        </mxCell>
        <mxCell id="m7gCa_fF5HbTMKwDqxD0-18" value="" style="endArrow=none;html=1;rounded=0;" parent="1" source="m7gCa_fF5HbTMKwDqxD0-12" target="m7gCa_fF5HbTMKwDqxD0-13" edge="1">
          <mxGeometry width="50" height="50" relative="1" as="geometry">
            <mxPoint x="25" y="320" as="sourcePoint" />
            <mxPoint x="100" y="320" as="targetPoint" />
          </mxGeometry>
        </mxCell>
        <mxCell id="m7gCa_fF5HbTMKwDqxD0-20" value="" style="endArrow=none;html=1;rounded=0;" parent="1" source="m7gCa_fF5HbTMKwDqxD0-11" target="m7gCa_fF5HbTMKwDqxD0-4" edge="1">
          <mxGeometry width="50" height="50" relative="1" as="geometry">
            <mxPoint x="55" y="350" as="sourcePoint" />
            <mxPoint x="130" y="350" as="targetPoint" />
          </mxGeometry>
        </mxCell>
        <mxCell id="m7gCa_fF5HbTMKwDqxD0-21" value="" style="endArrow=none;html=1;rounded=0;" parent="1" source="m7gCa_fF5HbTMKwDqxD0-4" edge="1">
          <mxGeometry width="50" height="50" relative="1" as="geometry">
            <mxPoint x="700" y="470" as="sourcePoint" />
            <mxPoint x="690" y="380" as="targetPoint" />
          </mxGeometry>
        </mxCell>
        <mxCell id="m7gCa_fF5HbTMKwDqxD0-22" value="" style="endArrow=none;html=1;rounded=0;" parent="1" source="m7gCa_fF5HbTMKwDqxD0-6" target="m7gCa_fF5HbTMKwDqxD0-3" edge="1">
          <mxGeometry width="50" height="50" relative="1" as="geometry">
            <mxPoint x="890" y="380" as="sourcePoint" />
            <mxPoint x="150" y="370" as="targetPoint" />
          </mxGeometry>
        </mxCell>
        <mxCell id="m7gCa_fF5HbTMKwDqxD0-23" value="" style="endArrow=none;html=1;rounded=0;" parent="1" source="m7gCa_fF5HbTMKwDqxD0-5" target="m7gCa_fF5HbTMKwDqxD0-6" edge="1">
          <mxGeometry width="50" height="50" relative="1" as="geometry">
            <mxPoint x="85" y="380" as="sourcePoint" />
            <mxPoint x="160" y="380" as="targetPoint" />
          </mxGeometry>
        </mxCell>
        <mxCell id="m7gCa_fF5HbTMKwDqxD0-25" value="" style="endArrow=classic;html=1;rounded=0;" parent="1" source="m7gCa_fF5HbTMKwDqxD0-3" target="m7gCa_fF5HbTMKwDqxD0-26" edge="1">
          <mxGeometry width="50" height="50" relative="1" as="geometry">
            <mxPoint x="1190" y="340" as="sourcePoint" />
            <mxPoint x="460" y="280" as="targetPoint" />
            <Array as="points">
              <mxPoint x="910" y="310" />
            </Array>
          </mxGeometry>
        </mxCell>
        <mxCell id="m7gCa_fF5HbTMKwDqxD0-26" value="Choisir option" style="ellipse;whiteSpace=wrap;html=1;" parent="1" vertex="1">
          <mxGeometry x="250" y="250" width="120" height="80" as="geometry" />
        </mxCell>
        <mxCell id="m7gCa_fF5HbTMKwDqxD0-27" value="" style="endArrow=none;html=1;rounded=0;" parent="1" source="m7gCa_fF5HbTMKwDqxD0-26" target="m7gCa_fF5HbTMKwDqxD0-12" edge="1">
          <mxGeometry width="50" height="50" relative="1" as="geometry">
            <mxPoint x="5" y="300" as="sourcePoint" />
            <mxPoint x="80" y="300" as="targetPoint" />
          </mxGeometry>
        </mxCell>
        <mxCell id="m7gCa_fF5HbTMKwDqxD0-28" value="" style="endArrow=none;html=1;rounded=0;" parent="1" source="m7gCa_fF5HbTMKwDqxD0-11" target="m7gCa_fF5HbTMKwDqxD0-26" edge="1">
          <mxGeometry width="50" height="50" relative="1" as="geometry">
            <mxPoint x="15" y="310" as="sourcePoint" />
            <mxPoint x="90" y="310" as="targetPoint" />
          </mxGeometry>
        </mxCell>
        <mxCell id="AgboY2mobobdvkJlcGyU-1" value="" style="endArrow=classic;html=1;rounded=0;entryX=1.015;entryY=0.39;entryDx=0;entryDy=0;entryPerimeter=0;" parent="1" source="m7gCa_fF5HbTMKwDqxD0-13" target="m7gCa_fF5HbTMKwDqxD0-26" edge="1">
          <mxGeometry width="50" height="50" relative="1" as="geometry">
            <mxPoint x="810" y="220" as="sourcePoint" />
            <mxPoint x="620" y="150" as="targetPoint" />
            <Array as="points">
              <mxPoint x="550" y="250" />
            </Array>
          </mxGeometry>
        </mxCell>
        <mxCell id="JXKdy63hA0GNMnV5Y0KX-1" value="ParamÃ¨tres" style="ellipse;whiteSpace=wrap;html=1;" vertex="1" parent="1">
          <mxGeometry x="330" y="460" width="120" height="80" as="geometry" />
        </mxCell>
        <mxCell id="JXKdy63hA0GNMnV5Y0KX-2" value="" style="endArrow=none;html=1;rounded=0;" edge="1" parent="1" source="JXKdy63hA0GNMnV5Y0KX-1" target="m7gCa_fF5HbTMKwDqxD0-26">
          <mxGeometry width="50" height="50" relative="1" as="geometry">
            <mxPoint x="429" y="361" as="sourcePoint" />
            <mxPoint x="371" y="319" as="targetPoint" />
          </mxGeometry>
        </mxCell>
        <mxCell id="JXKdy63hA0GNMnV5Y0KX-3" value="Changer Langue" style="ellipse;whiteSpace=wrap;html=1;" vertex="1" parent="1">
          <mxGeometry x="510" y="460" width="120" height="80" as="geometry" />
        </mxCell>
        <mxCell id="JXKdy63hA0GNMnV5Y0KX-4" value="" style="endArrow=none;html=1;rounded=0;" edge="1" parent="1" source="JXKdy63hA0GNMnV5Y0KX-1" target="JXKdy63hA0GNMnV5Y0KX-3">
          <mxGeometry width="50" height="50" relative="1" as="geometry">
            <mxPoint x="392" y="472" as="sourcePoint" />
            <mxPoint x="338" y="358" as="targetPoint" />
          </mxGeometry>
        </mxCell>
        <mxCell id="JXKdy63hA0GNMnV5Y0KX-5" value="Retour" style="ellipse;whiteSpace=wrap;html=1;" vertex="1" parent="1">
          <mxGeometry x="510" y="565" width="120" height="80" as="geometry" />
        </mxCell>
        <mxCell id="JXKdy63hA0GNMnV5Y0KX-7" value="" style="endArrow=none;html=1;rounded=0;" edge="1" parent="1" source="JXKdy63hA0GNMnV5Y0KX-1" target="JXKdy63hA0GNMnV5Y0KX-5">
          <mxGeometry width="50" height="50" relative="1" as="geometry">
            <mxPoint x="470" y="510" as="sourcePoint" />
            <mxPoint x="520" y="510" as="targetPoint" />
          </mxGeometry>
        </mxCell>
        <mxCell id="JXKdy63hA0GNMnV5Y0KX-8" value="" style="endArrow=classic;html=1;rounded=0;entryX=0.5;entryY=1;entryDx=0;entryDy=0;" edge="1" parent="1" source="JXKdy63hA0GNMnV5Y0KX-5" target="m7gCa_fF5HbTMKwDqxD0-26">
          <mxGeometry width="50" height="50" relative="1" as="geometry">
            <mxPoint x="890" y="685" as="sourcePoint" />
            <mxPoint x="310" y="350" as="targetPoint" />
            <Array as="points">
              <mxPoint x="310" y="590" />
            </Array>
          </mxGeometry>
        </mxCell>
        <mxCell id="JXKdy63hA0GNMnV5Y0KX-9" value="" style="endArrow=classic;html=1;rounded=0;entryX=0.74;entryY=1.02;entryDx=0;entryDy=0;entryPerimeter=0;" edge="1" parent="1" source="JXKdy63hA0GNMnV5Y0KX-3" target="m7gCa_fF5HbTMKwDqxD0-26">
          <mxGeometry width="50" height="50" relative="1" as="geometry">
            <mxPoint x="520" y="612" as="sourcePoint" />
            <mxPoint x="320" y="340" as="targetPoint" />
            <Array as="points">
              <mxPoint x="420" y="450" />
            </Array>
          </mxGeometry>
        </mxCell>
      </root>
    </mxGraphModel>
  </diagram>
  <diagram name="Seq-CreateSave" id="Nh45rLpJ9-KZvIPOIKra">
    <mxGraphModel dx="733" dy="551" grid="0" gridSize="10" guides="1" tooltips="1" connect="1" arrows="1" fold="1" page="1" pageScale="1" pageWidth="850" pageHeight="1100" math="0" shadow="0">
      <root>
        <mxCell id="0" />
        <mxCell id="1" parent="0" />
        <mxCell id="aM9ryv3xv72pqoxQDRHE-1" value="App" style="shape=umlLifeline;perimeter=lifelinePerimeter;whiteSpace=wrap;html=1;container=0;dropTarget=0;collapsible=0;recursiveResize=0;outlineConnect=0;portConstraint=eastwest;newEdgeStyle={&quot;edgeStyle&quot;:&quot;elbowEdgeStyle&quot;,&quot;elbow&quot;:&quot;vertical&quot;,&quot;curved&quot;:0,&quot;rounded&quot;:0};" parent="1" vertex="1">
          <mxGeometry x="40" y="40" width="100" height="220" as="geometry" />
        </mxCell>
        <mxCell id="aM9ryv3xv72pqoxQDRHE-2" value="" style="html=1;points=[];perimeter=orthogonalPerimeter;outlineConnect=0;targetShapes=umlLifeline;portConstraint=eastwest;newEdgeStyle={&quot;edgeStyle&quot;:&quot;elbowEdgeStyle&quot;,&quot;elbow&quot;:&quot;vertical&quot;,&quot;curved&quot;:0,&quot;rounded&quot;:0};" parent="aM9ryv3xv72pqoxQDRHE-1" vertex="1">
          <mxGeometry x="45" y="56" width="10" height="114" as="geometry" />
        </mxCell>
        <mxCell id="aM9ryv3xv72pqoxQDRHE-5" value="ModelView" style="shape=umlLifeline;perimeter=lifelinePerimeter;whiteSpace=wrap;html=1;container=0;dropTarget=0;collapsible=0;recursiveResize=0;outlineConnect=0;portConstraint=eastwest;newEdgeStyle={&quot;edgeStyle&quot;:&quot;elbowEdgeStyle&quot;,&quot;elbow&quot;:&quot;vertical&quot;,&quot;curved&quot;:0,&quot;rounded&quot;:0};" parent="1" vertex="1">
          <mxGeometry x="220" y="40" width="100" height="220" as="geometry" />
        </mxCell>
        <mxCell id="aM9ryv3xv72pqoxQDRHE-6" value="" style="html=1;points=[];perimeter=orthogonalPerimeter;outlineConnect=0;targetShapes=umlLifeline;portConstraint=eastwest;newEdgeStyle={&quot;edgeStyle&quot;:&quot;elbowEdgeStyle&quot;,&quot;elbow&quot;:&quot;vertical&quot;,&quot;curved&quot;:0,&quot;rounded&quot;:0};" parent="aM9ryv3xv72pqoxQDRHE-5" vertex="1">
          <mxGeometry x="45" y="64" width="10" height="96" as="geometry" />
        </mxCell>
        <mxCell id="aM9ryv3xv72pqoxQDRHE-7" value="CreateSave(nom, sourcePath&lt;br&gt;destPass, typeSave)" style="html=1;verticalAlign=bottom;endArrow=block;edgeStyle=elbowEdgeStyle;elbow=horizontal;curved=0;rounded=0;" parent="1" source="aM9ryv3xv72pqoxQDRHE-2" target="aM9ryv3xv72pqoxQDRHE-6" edge="1">
          <mxGeometry relative="1" as="geometry">
            <mxPoint x="195" y="130" as="sourcePoint" />
            <Array as="points">
              <mxPoint x="180" y="120" />
            </Array>
            <mxPoint as="offset" />
          </mxGeometry>
        </mxCell>
        <mxCell id="aM9ryv3xv72pqoxQDRHE-8" value="" style="html=1;verticalAlign=bottom;endArrow=open;dashed=1;endSize=8;edgeStyle=elbowEdgeStyle;elbow=vertical;curved=0;rounded=0;" parent="1" edge="1">
          <mxGeometry relative="1" as="geometry">
            <mxPoint x="277" y="193" as="targetPoint" />
            <Array as="points">
              <mxPoint x="362" y="193" />
            </Array>
            <mxPoint x="437" y="193" as="sourcePoint" />
          </mxGeometry>
        </mxCell>
        <mxCell id="SX6parnMLrhe52nLN6EI-1" value="ManageSaves" style="shape=umlLifeline;perimeter=lifelinePerimeter;whiteSpace=wrap;html=1;container=0;dropTarget=0;collapsible=0;recursiveResize=0;outlineConnect=0;portConstraint=eastwest;newEdgeStyle={&quot;edgeStyle&quot;:&quot;elbowEdgeStyle&quot;,&quot;elbow&quot;:&quot;vertical&quot;,&quot;curved&quot;:0,&quot;rounded&quot;:0};" parent="1" vertex="1">
          <mxGeometry x="400" y="40" width="100" height="220" as="geometry" />
        </mxCell>
        <mxCell id="SX6parnMLrhe52nLN6EI-2" value="" style="html=1;points=[];perimeter=orthogonalPerimeter;outlineConnect=0;targetShapes=umlLifeline;portConstraint=eastwest;newEdgeStyle={&quot;edgeStyle&quot;:&quot;elbowEdgeStyle&quot;,&quot;elbow&quot;:&quot;vertical&quot;,&quot;curved&quot;:0,&quot;rounded&quot;:0};" parent="SX6parnMLrhe52nLN6EI-1" vertex="1">
          <mxGeometry x="45" y="67" width="10" height="88" as="geometry" />
        </mxCell>
        <mxCell id="SX6parnMLrhe52nLN6EI-3" value="addSave(nom, sourcePath&lt;br style=&quot;border-color: var(--border-color);&quot;&gt;destPass, typeSave)" style="html=1;verticalAlign=bottom;endArrow=block;edgeStyle=elbowEdgeStyle;elbow=vertical;curved=0;rounded=0;" parent="1" edge="1">
          <mxGeometry relative="1" as="geometry">
            <mxPoint x="280" y="126" as="sourcePoint" />
            <Array as="points">
              <mxPoint x="355" y="126" />
            </Array>
            <mxPoint x="440" y="126" as="targetPoint" />
          </mxGeometry>
        </mxCell>
        <mxCell id="SX6parnMLrhe52nLN6EI-6" value="" style="html=1;verticalAlign=bottom;endArrow=open;dashed=1;endSize=8;edgeStyle=elbowEdgeStyle;elbow=vertical;curved=0;rounded=0;" parent="1" edge="1">
          <mxGeometry relative="1" as="geometry">
            <mxPoint x="100" y="196" as="targetPoint" />
            <Array as="points">
              <mxPoint x="185" y="196" />
            </Array>
            <mxPoint x="260" y="196" as="sourcePoint" />
            <mxPoint as="offset" />
          </mxGeometry>
        </mxCell>
        <mxCell id="SX6parnMLrhe52nLN6EI-9" value="&lt;div&gt;Save&lt;/div&gt;" style="shape=umlLifeline;perimeter=lifelinePerimeter;whiteSpace=wrap;html=1;container=0;dropTarget=0;collapsible=0;recursiveResize=0;outlineConnect=0;portConstraint=eastwest;newEdgeStyle={&quot;edgeStyle&quot;:&quot;elbowEdgeStyle&quot;,&quot;elbow&quot;:&quot;vertical&quot;,&quot;curved&quot;:0,&quot;rounded&quot;:0};" parent="1" vertex="1">
          <mxGeometry x="560" y="40" width="100" height="220" as="geometry" />
        </mxCell>
        <mxCell id="SX6parnMLrhe52nLN6EI-10" value="" style="html=1;points=[];perimeter=orthogonalPerimeter;outlineConnect=0;targetShapes=umlLifeline;portConstraint=eastwest;newEdgeStyle={&quot;edgeStyle&quot;:&quot;elbowEdgeStyle&quot;,&quot;elbow&quot;:&quot;vertical&quot;,&quot;curved&quot;:0,&quot;rounded&quot;:0};" parent="SX6parnMLrhe52nLN6EI-9" vertex="1">
          <mxGeometry x="45" y="72" width="10" height="75" as="geometry" />
        </mxCell>
        <mxCell id="SX6parnMLrhe52nLN6EI-11" value="Add(save)" style="html=1;verticalAlign=bottom;endArrow=block;edgeStyle=elbowEdgeStyle;elbow=horizontal;curved=0;rounded=0;" parent="1" edge="1">
          <mxGeometry relative="1" as="geometry">
            <mxPoint x="460" y="163" as="sourcePoint" />
            <Array as="points">
              <mxPoint x="515" y="163" />
            </Array>
            <mxPoint x="600" y="163" as="targetPoint" />
            <mxPoint as="offset" />
          </mxGeometry>
        </mxCell>
        <mxCell id="SX6parnMLrhe52nLN6EI-12" value="" style="html=1;verticalAlign=bottom;endArrow=open;dashed=1;endSize=8;edgeStyle=elbowEdgeStyle;elbow=horizontal;curved=0;rounded=0;" parent="1" edge="1">
          <mxGeometry relative="1" as="geometry">
            <mxPoint x="458" y="175" as="targetPoint" />
            <Array as="points">
              <mxPoint x="523" y="175" />
            </Array>
            <mxPoint x="598" y="175" as="sourcePoint" />
          </mxGeometry>
        </mxCell>
        <mxCell id="C0YE6V1jauBKZ-5cYGsG-1" value="SetNumber()" style="html=1;verticalAlign=bottom;endArrow=block;edgeStyle=elbowEdgeStyle;elbow=horizontal;curved=0;rounded=0;" edge="1" parent="1">
          <mxGeometry relative="1" as="geometry">
            <mxPoint x="460" y="149.68" as="sourcePoint" />
            <Array as="points">
              <mxPoint x="536" y="134.68" />
            </Array>
            <mxPoint x="600" y="149.68" as="targetPoint" />
            <mxPoint as="offset" />
          </mxGeometry>
        </mxCell>
        <mxCell id="C0YE6V1jauBKZ-5cYGsG-2" value="IncrementNumberMaxSave()" style="html=1;verticalAlign=bottom;endArrow=block;edgeStyle=elbowEdgeStyle;elbow=horizontal;curved=0;rounded=0;" edge="1" parent="1">
          <mxGeometry relative="1" as="geometry">
            <mxPoint x="456" y="110" as="sourcePoint" />
            <Array as="points">
              <mxPoint x="519" y="57" />
            </Array>
            <mxPoint x="451" y="134" as="targetPoint" />
            <mxPoint as="offset" />
          </mxGeometry>
        </mxCell>
        <mxCell id="C0YE6V1jauBKZ-5cYGsG-3" value="" style="html=1;verticalAlign=bottom;endArrow=open;dashed=1;endSize=8;edgeStyle=elbowEdgeStyle;elbow=horizontal;curved=0;rounded=0;" edge="1" parent="1">
          <mxGeometry relative="1" as="geometry">
            <mxPoint x="458" y="186" as="targetPoint" />
            <Array as="points">
              <mxPoint x="523" y="186" />
            </Array>
            <mxPoint x="598" y="186" as="sourcePoint" />
          </mxGeometry>
        </mxCell>
      </root>
    </mxGraphModel>
  </diagram>
  <diagram id="bM3FEyYuyCXBI9KpNqRT" name="Seq-RunSave">
    <mxGraphModel dx="1026" dy="772" grid="1" gridSize="10" guides="1" tooltips="1" connect="1" arrows="1" fold="1" page="1" pageScale="1" pageWidth="827" pageHeight="1169" math="0" shadow="0">
      <root>
        <mxCell id="0" />
        <mxCell id="1" parent="0" />
        <mxCell id="dAgUnc_UMdwNtb6Xp2BQ-1" value="App" style="shape=umlLifeline;perimeter=lifelinePerimeter;whiteSpace=wrap;html=1;container=0;dropTarget=0;collapsible=0;recursiveResize=0;outlineConnect=0;portConstraint=eastwest;newEdgeStyle={&quot;edgeStyle&quot;:&quot;elbowEdgeStyle&quot;,&quot;elbow&quot;:&quot;vertical&quot;,&quot;curved&quot;:0,&quot;rounded&quot;:0};" vertex="1" parent="1">
          <mxGeometry x="40" y="40" width="100" height="220" as="geometry" />
        </mxCell>
        <mxCell id="dAgUnc_UMdwNtb6Xp2BQ-2" value="" style="html=1;points=[];perimeter=orthogonalPerimeter;outlineConnect=0;targetShapes=umlLifeline;portConstraint=eastwest;newEdgeStyle={&quot;edgeStyle&quot;:&quot;elbowEdgeStyle&quot;,&quot;elbow&quot;:&quot;vertical&quot;,&quot;curved&quot;:0,&quot;rounded&quot;:0};" vertex="1" parent="dAgUnc_UMdwNtb6Xp2BQ-1">
          <mxGeometry x="45" y="56" width="10" height="114" as="geometry" />
        </mxCell>
        <mxCell id="dAgUnc_UMdwNtb6Xp2BQ-3" value="ModelView" style="shape=umlLifeline;perimeter=lifelinePerimeter;whiteSpace=wrap;html=1;container=0;dropTarget=0;collapsible=0;recursiveResize=0;outlineConnect=0;portConstraint=eastwest;newEdgeStyle={&quot;edgeStyle&quot;:&quot;elbowEdgeStyle&quot;,&quot;elbow&quot;:&quot;vertical&quot;,&quot;curved&quot;:0,&quot;rounded&quot;:0};" vertex="1" parent="1">
          <mxGeometry x="220" y="40" width="100" height="220" as="geometry" />
        </mxCell>
        <mxCell id="dAgUnc_UMdwNtb6Xp2BQ-4" value="" style="html=1;points=[];perimeter=orthogonalPerimeter;outlineConnect=0;targetShapes=umlLifeline;portConstraint=eastwest;newEdgeStyle={&quot;edgeStyle&quot;:&quot;elbowEdgeStyle&quot;,&quot;elbow&quot;:&quot;vertical&quot;,&quot;curved&quot;:0,&quot;rounded&quot;:0};" vertex="1" parent="dAgUnc_UMdwNtb6Xp2BQ-3">
          <mxGeometry x="45" y="64" width="10" height="96" as="geometry" />
        </mxCell>
        <mxCell id="dAgUnc_UMdwNtb6Xp2BQ-5" value="RunSave(numberUser)" style="html=1;verticalAlign=bottom;endArrow=block;edgeStyle=elbowEdgeStyle;elbow=horizontal;curved=0;rounded=0;" edge="1" parent="1" source="dAgUnc_UMdwNtb6Xp2BQ-2" target="dAgUnc_UMdwNtb6Xp2BQ-4">
          <mxGeometry relative="1" as="geometry">
            <mxPoint x="195" y="130" as="sourcePoint" />
            <Array as="points">
              <mxPoint x="180" y="120" />
            </Array>
            <mxPoint as="offset" />
          </mxGeometry>
        </mxCell>
        <mxCell id="dAgUnc_UMdwNtb6Xp2BQ-6" value="" style="html=1;verticalAlign=bottom;endArrow=open;dashed=1;endSize=8;edgeStyle=elbowEdgeStyle;elbow=vertical;curved=0;rounded=0;" edge="1" parent="1">
          <mxGeometry relative="1" as="geometry">
            <mxPoint x="277" y="193" as="targetPoint" />
            <Array as="points">
              <mxPoint x="362" y="193" />
            </Array>
            <mxPoint x="437" y="193" as="sourcePoint" />
          </mxGeometry>
        </mxCell>
        <mxCell id="dAgUnc_UMdwNtb6Xp2BQ-7" value="ManageSaves" style="shape=umlLifeline;perimeter=lifelinePerimeter;whiteSpace=wrap;html=1;container=0;dropTarget=0;collapsible=0;recursiveResize=0;outlineConnect=0;portConstraint=eastwest;newEdgeStyle={&quot;edgeStyle&quot;:&quot;elbowEdgeStyle&quot;,&quot;elbow&quot;:&quot;vertical&quot;,&quot;curved&quot;:0,&quot;rounded&quot;:0};" vertex="1" parent="1">
          <mxGeometry x="400" y="40" width="100" height="220" as="geometry" />
        </mxCell>
        <mxCell id="dAgUnc_UMdwNtb6Xp2BQ-8" value="" style="html=1;points=[];perimeter=orthogonalPerimeter;outlineConnect=0;targetShapes=umlLifeline;portConstraint=eastwest;newEdgeStyle={&quot;edgeStyle&quot;:&quot;elbowEdgeStyle&quot;,&quot;elbow&quot;:&quot;vertical&quot;,&quot;curved&quot;:0,&quot;rounded&quot;:0};" vertex="1" parent="dAgUnc_UMdwNtb6Xp2BQ-7">
          <mxGeometry x="45" y="67" width="10" height="88" as="geometry" />
        </mxCell>
        <mxCell id="dAgUnc_UMdwNtb6Xp2BQ-9" value="RunSaves(numberUser)" style="html=1;verticalAlign=bottom;endArrow=block;edgeStyle=elbowEdgeStyle;elbow=vertical;curved=0;rounded=0;" edge="1" parent="1">
          <mxGeometry relative="1" as="geometry">
            <mxPoint x="280" y="126" as="sourcePoint" />
            <Array as="points">
              <mxPoint x="355" y="126" />
            </Array>
            <mxPoint x="440" y="126" as="targetPoint" />
          </mxGeometry>
        </mxCell>
        <mxCell id="dAgUnc_UMdwNtb6Xp2BQ-10" value="" style="html=1;verticalAlign=bottom;endArrow=open;dashed=1;endSize=8;edgeStyle=elbowEdgeStyle;elbow=vertical;curved=0;rounded=0;" edge="1" parent="1">
          <mxGeometry relative="1" as="geometry">
            <mxPoint x="100" y="196" as="targetPoint" />
            <Array as="points">
              <mxPoint x="185" y="196" />
            </Array>
            <mxPoint x="260" y="196" as="sourcePoint" />
            <mxPoint as="offset" />
          </mxGeometry>
        </mxCell>
        <mxCell id="dAgUnc_UMdwNtb6Xp2BQ-11" value="&lt;div&gt;Save&lt;/div&gt;" style="shape=umlLifeline;perimeter=lifelinePerimeter;whiteSpace=wrap;html=1;container=0;dropTarget=0;collapsible=0;recursiveResize=0;outlineConnect=0;portConstraint=eastwest;newEdgeStyle={&quot;edgeStyle&quot;:&quot;elbowEdgeStyle&quot;,&quot;elbow&quot;:&quot;vertical&quot;,&quot;curved&quot;:0,&quot;rounded&quot;:0};" vertex="1" parent="1">
          <mxGeometry x="560" y="40" width="100" height="220" as="geometry" />
        </mxCell>
        <mxCell id="dAgUnc_UMdwNtb6Xp2BQ-12" value="" style="html=1;points=[];perimeter=orthogonalPerimeter;outlineConnect=0;targetShapes=umlLifeline;portConstraint=eastwest;newEdgeStyle={&quot;edgeStyle&quot;:&quot;elbowEdgeStyle&quot;,&quot;elbow&quot;:&quot;vertical&quot;,&quot;curved&quot;:0,&quot;rounded&quot;:0};" vertex="1" parent="dAgUnc_UMdwNtb6Xp2BQ-11">
          <mxGeometry x="45" y="72" width="10" height="75" as="geometry" />
        </mxCell>
        <mxCell id="dAgUnc_UMdwNtb6Xp2BQ-15" value="ExecuteSave()" style="html=1;verticalAlign=bottom;endArrow=block;edgeStyle=elbowEdgeStyle;elbow=horizontal;curved=0;rounded=0;" edge="1" parent="1">
          <mxGeometry relative="1" as="geometry">
            <mxPoint x="460" y="149.68" as="sourcePoint" />
            <Array as="points">
              <mxPoint x="536" y="134.68" />
            </Array>
            <mxPoint x="600" y="149.68" as="targetPoint" />
            <mxPoint as="offset" />
          </mxGeometry>
        </mxCell>
        <mxCell id="dAgUnc_UMdwNtb6Xp2BQ-16" value="CopyDirectory()" style="html=1;verticalAlign=bottom;endArrow=block;edgeStyle=elbowEdgeStyle;elbow=horizontal;curved=0;rounded=0;" edge="1" parent="1">
          <mxGeometry relative="1" as="geometry">
            <mxPoint x="625" y="150" as="sourcePoint" />
            <Array as="points">
              <mxPoint x="710" y="170" />
            </Array>
            <mxPoint x="620" y="180" as="targetPoint" />
            <mxPoint as="offset" />
          </mxGeometry>
        </mxCell>
        <mxCell id="dAgUnc_UMdwNtb6Xp2BQ-17" value="" style="html=1;verticalAlign=bottom;endArrow=open;dashed=1;endSize=8;edgeStyle=elbowEdgeStyle;elbow=horizontal;curved=0;rounded=0;" edge="1" parent="1">
          <mxGeometry relative="1" as="geometry">
            <mxPoint x="458" y="186" as="targetPoint" />
            <Array as="points">
              <mxPoint x="523" y="186" />
            </Array>
            <mxPoint x="598" y="186" as="sourcePoint" />
          </mxGeometry>
        </mxCell>
        <mxCell id="dAgUnc_UMdwNtb6Xp2BQ-18" value="GetNumbersToExecute()" style="html=1;verticalAlign=bottom;endArrow=block;edgeStyle=elbowEdgeStyle;elbow=horizontal;curved=0;rounded=0;" edge="1" parent="1">
          <mxGeometry x="0.0065" relative="1" as="geometry">
            <mxPoint x="465" y="110" as="sourcePoint" />
            <Array as="points">
              <mxPoint x="528" y="57" />
            </Array>
            <mxPoint x="460" y="134" as="targetPoint" />
            <mxPoint as="offset" />
          </mxGeometry>
        </mxCell>
        <mxCell id="dAgUnc_UMdwNtb6Xp2BQ-19" value="&lt;span style=&quot;font-family: Helvetica; font-size: 11px; font-style: normal; font-variant-ligatures: normal; font-variant-caps: normal; font-weight: 400; letter-spacing: normal; orphans: 2; text-align: center; text-indent: 0px; text-transform: none; widows: 2; word-spacing: 0px; -webkit-text-stroke-width: 0px; background-color: rgb(255, 255, 255); text-decoration-thickness: initial; text-decoration-style: initial; text-decoration-color: initial; float: none; display: inline !important;&quot;&gt;&lt;font color=&quot;#ff3333&quot;&gt;- canFileBeCopied()&lt;/font&gt;&lt;/span&gt;" style="html=1;verticalAlign=bottom;endArrow=block;edgeStyle=elbowEdgeStyle;elbow=horizontal;curved=0;rounded=0;strokeColor=#FF3333;" edge="1" parent="1">
          <mxGeometry x="0.0685" y="46" relative="1" as="geometry">
            <mxPoint x="620" y="160" as="sourcePoint" />
            <Array as="points">
              <mxPoint x="688" y="97" />
            </Array>
            <mxPoint x="620" y="170" as="targetPoint" />
            <mxPoint x="22" y="-6" as="offset" />
          </mxGeometry>
        </mxCell>
        <mxCell id="jj-EM1-ucw2HHTVzTXXP-2" value="&lt;font color=&quot;#e81111&quot;&gt;- AddLog ()&lt;br&gt;&lt;/font&gt;- &lt;font color=&quot;#ff3333&quot;&gt;SaveLogsToJson()&lt;/font&gt;" style="text;html=1;strokeColor=none;fillColor=none;align=center;verticalAlign=middle;whiteSpace=wrap;rounded=0;" vertex="1" parent="1">
          <mxGeometry x="640" y="200" width="130" height="40" as="geometry" />
        </mxCell>
      </root>
    </mxGraphModel>
  </diagram>
  <diagram id="PI0z4Wty4laJTYJ8egdY" name="Function - ExecuteSave">
    <mxGraphModel dx="1080" dy="1982" grid="1" gridSize="10" guides="1" tooltips="1" connect="1" arrows="1" fold="1" page="1" pageScale="1" pageWidth="827" pageHeight="1169" math="0" shadow="0">
      <root>
        <mxCell id="0" />
        <mxCell id="1" parent="0" />
        <mxCell id="x4dKaOmjmtqkPEcBllOa-36" value="" style="ellipse;whiteSpace=wrap;html=1;aspect=fixed;" vertex="1" parent="1">
          <mxGeometry x="395" y="420" width="50" height="50" as="geometry" />
        </mxCell>
        <mxCell id="4sKX8G4dx5V_4vnRqk01-1" value="" style="ellipse;whiteSpace=wrap;html=1;fillColor=#000000;" vertex="1" parent="1">
          <mxGeometry x="370" y="-10" width="50" height="50" as="geometry" />
        </mxCell>
        <mxCell id="4sKX8G4dx5V_4vnRqk01-2" value="" style="endArrow=classic;html=1;rounded=0;" edge="1" parent="1" source="4sKX8G4dx5V_4vnRqk01-1" target="x4dKaOmjmtqkPEcBllOa-1">
          <mxGeometry width="50" height="50" relative="1" as="geometry">
            <mxPoint x="330" y="260" as="sourcePoint" />
            <mxPoint x="395" y="190" as="targetPoint" />
          </mxGeometry>
        </mxCell>
        <mxCell id="4sKX8G4dx5V_4vnRqk01-4" value="" style="endArrow=none;html=1;rounded=0;strokeWidth=5;" edge="1" parent="1">
          <mxGeometry width="50" height="50" relative="1" as="geometry">
            <mxPoint x="240" y="190" as="sourcePoint" />
            <mxPoint x="600" y="190" as="targetPoint" />
          </mxGeometry>
        </mxCell>
        <mxCell id="4sKX8G4dx5V_4vnRqk01-11" value="" style="endArrow=classic;html=1;rounded=0;" edge="1" parent="1" target="x4dKaOmjmtqkPEcBllOa-3">
          <mxGeometry width="50" height="50" relative="1" as="geometry">
            <mxPoint x="580" y="190" as="sourcePoint" />
            <mxPoint x="455" y="270" as="targetPoint" />
          </mxGeometry>
        </mxCell>
        <mxCell id="4sKX8G4dx5V_4vnRqk01-12" value="&lt;br&gt;" style="edgeLabel;html=1;align=center;verticalAlign=middle;resizable=0;points=[];" vertex="1" connectable="0" parent="4sKX8G4dx5V_4vnRqk01-11">
          <mxGeometry x="-0.325" relative="1" as="geometry">
            <mxPoint as="offset" />
          </mxGeometry>
        </mxCell>
        <mxCell id="x4dKaOmjmtqkPEcBllOa-1" value="ExecuteSave" style="ellipse;whiteSpace=wrap;html=1;" vertex="1" parent="1">
          <mxGeometry x="335" y="100" width="120" height="50" as="geometry" />
        </mxCell>
        <mxCell id="x4dKaOmjmtqkPEcBllOa-2" value="" style="endArrow=classic;html=1;rounded=0;" edge="1" parent="1" source="x4dKaOmjmtqkPEcBllOa-1">
          <mxGeometry width="50" height="50" relative="1" as="geometry">
            <mxPoint x="400" y="120" as="sourcePoint" />
            <mxPoint x="395" y="190" as="targetPoint" />
          </mxGeometry>
        </mxCell>
        <mxCell id="x4dKaOmjmtqkPEcBllOa-3" value="Check TargetPath" style="ellipse;whiteSpace=wrap;html=1;" vertex="1" parent="1">
          <mxGeometry x="520" y="240" width="120" height="50" as="geometry" />
        </mxCell>
        <mxCell id="x4dKaOmjmtqkPEcBllOa-4" value="Check SourcePath" style="ellipse;whiteSpace=wrap;html=1;" vertex="1" parent="1">
          <mxGeometry x="200" y="240" width="120" height="50" as="geometry" />
        </mxCell>
        <mxCell id="x4dKaOmjmtqkPEcBllOa-5" value="" style="endArrow=classic;html=1;rounded=0;" edge="1" parent="1" target="x4dKaOmjmtqkPEcBllOa-4">
          <mxGeometry width="50" height="50" relative="1" as="geometry">
            <mxPoint x="260" y="190" as="sourcePoint" />
            <mxPoint x="587" y="250" as="targetPoint" />
          </mxGeometry>
        </mxCell>
        <mxCell id="x4dKaOmjmtqkPEcBllOa-6" value="&lt;br&gt;" style="edgeLabel;html=1;align=center;verticalAlign=middle;resizable=0;points=[];" vertex="1" connectable="0" parent="x4dKaOmjmtqkPEcBllOa-5">
          <mxGeometry x="-0.325" relative="1" as="geometry">
            <mxPoint as="offset" />
          </mxGeometry>
        </mxCell>
        <mxCell id="x4dKaOmjmtqkPEcBllOa-7" value="" style="whiteSpace=wrap;html=1;aspect=fixed;rotation=-45;" vertex="1" parent="1">
          <mxGeometry x="240" y="330" width="40" height="40" as="geometry" />
        </mxCell>
        <mxCell id="x4dKaOmjmtqkPEcBllOa-8" value="" style="whiteSpace=wrap;html=1;aspect=fixed;rotation=-45;" vertex="1" parent="1">
          <mxGeometry x="560" y="330" width="40" height="40" as="geometry" />
        </mxCell>
        <mxCell id="x4dKaOmjmtqkPEcBllOa-9" value="" style="endArrow=classic;html=1;rounded=0;" edge="1" parent="1" source="x4dKaOmjmtqkPEcBllOa-3" target="x4dKaOmjmtqkPEcBllOa-8">
          <mxGeometry width="50" height="50" relative="1" as="geometry">
            <mxPoint x="590" y="200" as="sourcePoint" />
            <mxPoint x="590" y="250" as="targetPoint" />
          </mxGeometry>
        </mxCell>
        <mxCell id="x4dKaOmjmtqkPEcBllOa-10" value="&lt;br&gt;" style="edgeLabel;html=1;align=center;verticalAlign=middle;resizable=0;points=[];" vertex="1" connectable="0" parent="x4dKaOmjmtqkPEcBllOa-9">
          <mxGeometry x="-0.325" relative="1" as="geometry">
            <mxPoint as="offset" />
          </mxGeometry>
        </mxCell>
        <mxCell id="x4dKaOmjmtqkPEcBllOa-11" value="" style="endArrow=classic;html=1;rounded=0;" edge="1" parent="1" source="x4dKaOmjmtqkPEcBllOa-4" target="x4dKaOmjmtqkPEcBllOa-7">
          <mxGeometry width="50" height="50" relative="1" as="geometry">
            <mxPoint x="590" y="300" as="sourcePoint" />
            <mxPoint x="590" y="332" as="targetPoint" />
          </mxGeometry>
        </mxCell>
        <mxCell id="x4dKaOmjmtqkPEcBllOa-12" value="&lt;br&gt;" style="edgeLabel;html=1;align=center;verticalAlign=middle;resizable=0;points=[];" vertex="1" connectable="0" parent="x4dKaOmjmtqkPEcBllOa-11">
          <mxGeometry x="-0.325" relative="1" as="geometry">
            <mxPoint as="offset" />
          </mxGeometry>
        </mxCell>
        <mxCell id="x4dKaOmjmtqkPEcBllOa-13" value="" style="endArrow=classic;html=1;rounded=0;entryX=0.683;entryY=0.07;entryDx=0;entryDy=0;entryPerimeter=0;" edge="1" parent="1" source="x4dKaOmjmtqkPEcBllOa-8" target="x4dKaOmjmtqkPEcBllOa-37">
          <mxGeometry width="50" height="50" relative="1" as="geometry">
            <mxPoint x="600" y="310" as="sourcePoint" />
            <mxPoint x="580" y="440" as="targetPoint" />
          </mxGeometry>
        </mxCell>
        <mxCell id="x4dKaOmjmtqkPEcBllOa-14" value="&lt;br&gt;" style="edgeLabel;html=1;align=center;verticalAlign=middle;resizable=0;points=[];" vertex="1" connectable="0" parent="x4dKaOmjmtqkPEcBllOa-13">
          <mxGeometry x="-0.325" relative="1" as="geometry">
            <mxPoint as="offset" />
          </mxGeometry>
        </mxCell>
        <mxCell id="x4dKaOmjmtqkPEcBllOa-15" value="Exist" style="edgeLabel;html=1;align=center;verticalAlign=middle;resizable=0;points=[];" vertex="1" connectable="0" parent="x4dKaOmjmtqkPEcBllOa-13">
          <mxGeometry x="-0.3062" y="-1" relative="1" as="geometry">
            <mxPoint as="offset" />
          </mxGeometry>
        </mxCell>
        <mxCell id="x4dKaOmjmtqkPEcBllOa-16" value="" style="endArrow=classic;html=1;rounded=0;" edge="1" parent="1" source="x4dKaOmjmtqkPEcBllOa-7" target="x4dKaOmjmtqkPEcBllOa-37">
          <mxGeometry width="50" height="50" relative="1" as="geometry">
            <mxPoint x="592" y="386" as="sourcePoint" />
            <mxPoint x="260" y="440" as="targetPoint" />
          </mxGeometry>
        </mxCell>
        <mxCell id="x4dKaOmjmtqkPEcBllOa-17" value="&lt;br&gt;" style="edgeLabel;html=1;align=center;verticalAlign=middle;resizable=0;points=[];" vertex="1" connectable="0" parent="x4dKaOmjmtqkPEcBllOa-16">
          <mxGeometry x="-0.325" relative="1" as="geometry">
            <mxPoint as="offset" />
          </mxGeometry>
        </mxCell>
        <mxCell id="x4dKaOmjmtqkPEcBllOa-18" value="Exist" style="edgeLabel;html=1;align=center;verticalAlign=middle;resizable=0;points=[];" vertex="1" connectable="0" parent="x4dKaOmjmtqkPEcBllOa-16">
          <mxGeometry x="-0.3062" y="-1" relative="1" as="geometry">
            <mxPoint as="offset" />
          </mxGeometry>
        </mxCell>
        <mxCell id="x4dKaOmjmtqkPEcBllOa-20" value="" style="endArrow=classic;html=1;rounded=0;" edge="1" parent="1" source="x4dKaOmjmtqkPEcBllOa-7" target="x4dKaOmjmtqkPEcBllOa-28">
          <mxGeometry width="50" height="50" relative="1" as="geometry">
            <mxPoint x="270" y="388" as="sourcePoint" />
            <mxPoint x="380" y="280" as="targetPoint" />
          </mxGeometry>
        </mxCell>
        <mxCell id="x4dKaOmjmtqkPEcBllOa-21" value="&lt;br&gt;" style="edgeLabel;html=1;align=center;verticalAlign=middle;resizable=0;points=[];" vertex="1" connectable="0" parent="x4dKaOmjmtqkPEcBllOa-20">
          <mxGeometry x="-0.325" relative="1" as="geometry">
            <mxPoint as="offset" />
          </mxGeometry>
        </mxCell>
        <mxCell id="x4dKaOmjmtqkPEcBllOa-27" value="DontExist" style="edgeLabel;html=1;align=center;verticalAlign=middle;resizable=0;points=[];" vertex="1" connectable="0" parent="x4dKaOmjmtqkPEcBllOa-20">
          <mxGeometry x="0.1905" y="-1" relative="1" as="geometry">
            <mxPoint as="offset" />
          </mxGeometry>
        </mxCell>
        <mxCell id="x4dKaOmjmtqkPEcBllOa-23" value="" style="endArrow=classic;html=1;rounded=0;" edge="1" parent="1" source="x4dKaOmjmtqkPEcBllOa-8" target="x4dKaOmjmtqkPEcBllOa-28">
          <mxGeometry width="50" height="50" relative="1" as="geometry">
            <mxPoint x="288" y="350" as="sourcePoint" />
            <mxPoint x="460" y="280" as="targetPoint" />
          </mxGeometry>
        </mxCell>
        <mxCell id="x4dKaOmjmtqkPEcBllOa-24" value="&lt;br&gt;" style="edgeLabel;html=1;align=center;verticalAlign=middle;resizable=0;points=[];" vertex="1" connectable="0" parent="x4dKaOmjmtqkPEcBllOa-23">
          <mxGeometry x="-0.325" relative="1" as="geometry">
            <mxPoint as="offset" />
          </mxGeometry>
        </mxCell>
        <mxCell id="x4dKaOmjmtqkPEcBllOa-25" value="DontExist" style="edgeLabel;html=1;align=center;verticalAlign=middle;resizable=0;points=[];" vertex="1" connectable="0" parent="x4dKaOmjmtqkPEcBllOa-23">
          <mxGeometry x="-0.3062" y="-1" relative="1" as="geometry">
            <mxPoint as="offset" />
          </mxGeometry>
        </mxCell>
        <mxCell id="x4dKaOmjmtqkPEcBllOa-28" value="" style="whiteSpace=wrap;html=1;aspect=fixed;rotation=-45;" vertex="1" parent="1">
          <mxGeometry x="400" y="250" width="40" height="40" as="geometry" />
        </mxCell>
        <mxCell id="x4dKaOmjmtqkPEcBllOa-29" value="" style="endArrow=classic;html=1;rounded=0;" edge="1" parent="1" source="x4dKaOmjmtqkPEcBllOa-28">
          <mxGeometry width="50" height="50" relative="1" as="geometry">
            <mxPoint x="359" y="381" as="sourcePoint" />
            <mxPoint x="420" y="340" as="targetPoint" />
          </mxGeometry>
        </mxCell>
        <mxCell id="x4dKaOmjmtqkPEcBllOa-30" value="&lt;br&gt;" style="edgeLabel;html=1;align=center;verticalAlign=middle;resizable=0;points=[];" vertex="1" connectable="0" parent="x4dKaOmjmtqkPEcBllOa-29">
          <mxGeometry x="-0.325" relative="1" as="geometry">
            <mxPoint as="offset" />
          </mxGeometry>
        </mxCell>
        <mxCell id="x4dKaOmjmtqkPEcBllOa-32" value="Stop ExecuteSave" style="ellipse;whiteSpace=wrap;html=1;" vertex="1" parent="1">
          <mxGeometry x="360" y="340" width="120" height="50" as="geometry" />
        </mxCell>
        <mxCell id="x4dKaOmjmtqkPEcBllOa-33" value="" style="endArrow=classic;html=1;rounded=0;" edge="1" parent="1" source="x4dKaOmjmtqkPEcBllOa-32">
          <mxGeometry width="50" height="50" relative="1" as="geometry">
            <mxPoint x="419.57" y="400" as="sourcePoint" />
            <mxPoint x="420" y="420" as="targetPoint" />
          </mxGeometry>
        </mxCell>
        <mxCell id="x4dKaOmjmtqkPEcBllOa-34" value="&lt;br&gt;" style="edgeLabel;html=1;align=center;verticalAlign=middle;resizable=0;points=[];" vertex="1" connectable="0" parent="x4dKaOmjmtqkPEcBllOa-33">
          <mxGeometry x="-0.325" relative="1" as="geometry">
            <mxPoint as="offset" />
          </mxGeometry>
        </mxCell>
        <mxCell id="x4dKaOmjmtqkPEcBllOa-35" value="" style="ellipse;whiteSpace=wrap;html=1;fillColor=#000000;" vertex="1" parent="1">
          <mxGeometry x="402.5" y="430" width="35" height="30" as="geometry" />
        </mxCell>
        <mxCell id="x4dKaOmjmtqkPEcBllOa-37" value="CopyDirectory" style="ellipse;whiteSpace=wrap;html=1;" vertex="1" parent="1">
          <mxGeometry x="360" y="500" width="120" height="50" as="geometry" />
        </mxCell>
        <mxCell id="x4dKaOmjmtqkPEcBllOa-40" value="" style="endArrow=classic;html=1;rounded=0;" edge="1" parent="1" source="x4dKaOmjmtqkPEcBllOa-37">
          <mxGeometry width="50" height="50" relative="1" as="geometry">
            <mxPoint x="430" y="308" as="sourcePoint" />
            <mxPoint x="420" y="600" as="targetPoint" />
          </mxGeometry>
        </mxCell>
        <mxCell id="x4dKaOmjmtqkPEcBllOa-41" value="&lt;br&gt;" style="edgeLabel;html=1;align=center;verticalAlign=middle;resizable=0;points=[];" vertex="1" connectable="0" parent="x4dKaOmjmtqkPEcBllOa-40">
          <mxGeometry x="-0.325" relative="1" as="geometry">
            <mxPoint as="offset" />
          </mxGeometry>
        </mxCell>
        <mxCell id="x4dKaOmjmtqkPEcBllOa-42" value="" style="endArrow=none;html=1;rounded=0;strokeWidth=5;" edge="1" parent="1">
          <mxGeometry width="50" height="50" relative="1" as="geometry">
            <mxPoint x="240" y="600" as="sourcePoint" />
            <mxPoint x="600" y="600" as="targetPoint" />
          </mxGeometry>
        </mxCell>
        <mxCell id="x4dKaOmjmtqkPEcBllOa-43" value="" style="endArrow=classic;html=1;rounded=0;" edge="1" parent="1">
          <mxGeometry width="50" height="50" relative="1" as="geometry">
            <mxPoint x="280" y="600" as="sourcePoint" />
            <mxPoint x="280" y="650" as="targetPoint" />
          </mxGeometry>
        </mxCell>
        <mxCell id="x4dKaOmjmtqkPEcBllOa-44" value="&lt;br&gt;" style="edgeLabel;html=1;align=center;verticalAlign=middle;resizable=0;points=[];" vertex="1" connectable="0" parent="x4dKaOmjmtqkPEcBllOa-43">
          <mxGeometry x="-0.325" relative="1" as="geometry">
            <mxPoint as="offset" />
          </mxGeometry>
        </mxCell>
        <mxCell id="x4dKaOmjmtqkPEcBllOa-45" value="" style="endArrow=classic;html=1;rounded=0;" edge="1" parent="1">
          <mxGeometry width="50" height="50" relative="1" as="geometry">
            <mxPoint x="418.95" y="600" as="sourcePoint" />
            <mxPoint x="418.95" y="650" as="targetPoint" />
          </mxGeometry>
        </mxCell>
        <mxCell id="x4dKaOmjmtqkPEcBllOa-46" value="&lt;br&gt;" style="edgeLabel;html=1;align=center;verticalAlign=middle;resizable=0;points=[];" vertex="1" connectable="0" parent="x4dKaOmjmtqkPEcBllOa-45">
          <mxGeometry x="-0.325" relative="1" as="geometry">
            <mxPoint as="offset" />
          </mxGeometry>
        </mxCell>
        <mxCell id="x4dKaOmjmtqkPEcBllOa-47" value="" style="endArrow=classic;html=1;rounded=0;" edge="1" parent="1">
          <mxGeometry width="50" height="50" relative="1" as="geometry">
            <mxPoint x="570" y="600" as="sourcePoint" />
            <mxPoint x="570" y="650" as="targetPoint" />
          </mxGeometry>
        </mxCell>
        <mxCell id="x4dKaOmjmtqkPEcBllOa-48" value="&lt;br&gt;" style="edgeLabel;html=1;align=center;verticalAlign=middle;resizable=0;points=[];" vertex="1" connectable="0" parent="x4dKaOmjmtqkPEcBllOa-47">
          <mxGeometry x="-0.325" relative="1" as="geometry">
            <mxPoint as="offset" />
          </mxGeometry>
        </mxCell>
        <mxCell id="x4dKaOmjmtqkPEcBllOa-49" value="AddLog" style="ellipse;whiteSpace=wrap;html=1;" vertex="1" parent="1">
          <mxGeometry x="220" y="650" width="120" height="50" as="geometry" />
        </mxCell>
        <mxCell id="x4dKaOmjmtqkPEcBllOa-50" value="SaveLogToJson" style="ellipse;whiteSpace=wrap;html=1;" vertex="1" parent="1">
          <mxGeometry x="360" y="650" width="120" height="50" as="geometry" />
        </mxCell>
        <mxCell id="x4dKaOmjmtqkPEcBllOa-51" value="SaveRealTimeLogToJson" style="ellipse;whiteSpace=wrap;html=1;" vertex="1" parent="1">
          <mxGeometry x="510" y="650" width="120" height="50" as="geometry" />
        </mxCell>
        <mxCell id="x4dKaOmjmtqkPEcBllOa-52" value="" style="ellipse;whiteSpace=wrap;html=1;fillColor=#FFFFFF;" vertex="1" parent="1">
          <mxGeometry x="395" y="770" width="50" height="50" as="geometry" />
        </mxCell>
        <mxCell id="x4dKaOmjmtqkPEcBllOa-53" value="" style="endArrow=classic;html=1;rounded=0;" edge="1" parent="1" source="x4dKaOmjmtqkPEcBllOa-50" target="x4dKaOmjmtqkPEcBllOa-52">
          <mxGeometry width="50" height="50" relative="1" as="geometry">
            <mxPoint x="428.95" y="610" as="sourcePoint" />
            <mxPoint x="428.95" y="660" as="targetPoint" />
          </mxGeometry>
        </mxCell>
        <mxCell id="x4dKaOmjmtqkPEcBllOa-54" value="&lt;br&gt;" style="edgeLabel;html=1;align=center;verticalAlign=middle;resizable=0;points=[];" vertex="1" connectable="0" parent="x4dKaOmjmtqkPEcBllOa-53">
          <mxGeometry x="-0.325" relative="1" as="geometry">
            <mxPoint as="offset" />
          </mxGeometry>
        </mxCell>
        <mxCell id="x4dKaOmjmtqkPEcBllOa-55" value="" style="endArrow=classic;html=1;rounded=0;" edge="1" parent="1" source="x4dKaOmjmtqkPEcBllOa-49" target="x4dKaOmjmtqkPEcBllOa-52">
          <mxGeometry width="50" height="50" relative="1" as="geometry">
            <mxPoint x="430" y="710" as="sourcePoint" />
            <mxPoint x="430" y="780" as="targetPoint" />
          </mxGeometry>
        </mxCell>
        <mxCell id="x4dKaOmjmtqkPEcBllOa-56" value="&lt;br&gt;" style="edgeLabel;html=1;align=center;verticalAlign=middle;resizable=0;points=[];" vertex="1" connectable="0" parent="x4dKaOmjmtqkPEcBllOa-55">
          <mxGeometry x="-0.325" relative="1" as="geometry">
            <mxPoint as="offset" />
          </mxGeometry>
        </mxCell>
        <mxCell id="x4dKaOmjmtqkPEcBllOa-57" value="" style="endArrow=classic;html=1;rounded=0;" edge="1" parent="1" source="x4dKaOmjmtqkPEcBllOa-51" target="x4dKaOmjmtqkPEcBllOa-52">
          <mxGeometry width="50" height="50" relative="1" as="geometry">
            <mxPoint x="440" y="720" as="sourcePoint" />
            <mxPoint x="440" y="790" as="targetPoint" />
          </mxGeometry>
        </mxCell>
        <mxCell id="x4dKaOmjmtqkPEcBllOa-58" value="&lt;br&gt;" style="edgeLabel;html=1;align=center;verticalAlign=middle;resizable=0;points=[];" vertex="1" connectable="0" parent="x4dKaOmjmtqkPEcBllOa-57">
          <mxGeometry x="-0.325" relative="1" as="geometry">
            <mxPoint as="offset" />
          </mxGeometry>
        </mxCell>
        <mxCell id="x4dKaOmjmtqkPEcBllOa-61" value="" style="shape=mxgraph.sysml.x;strokeWidth=3;" vertex="1" parent="1">
          <mxGeometry x="400" y="780" width="40" height="30" as="geometry" />
        </mxCell>
      </root>
    </mxGraphModel>
  </diagram>
</mxfile>
